<svg width="6973" height="895" viewBox="0 0 6973 895" fill="none" xmlns="http://www.w3.org/2000/svg">
<path d="M331.943 875L37 405.426H436.5L658.034 465.869L1003.05 33L1351.92 470.712L1607 405.426H1980L1674.15 875H1003.05H331.943Z" fill="#2F80ED"/>
<path d="M331.943 875L37 405.426H436.5L1003.05 560L1607 405.426H1980L1674.15 875M331.943 875H1003.05H1674.15M331.943 875L1003.05 33L1674.15 875" stroke="white" stroke-width="40"/>
<path d="M2392.71 703V292.091H2479.59V631.372H2655.75V703H2392.71ZM2799.56 708.819C2779.9 708.819 2762.37 705.408 2746.99 698.586C2731.61 691.63 2719.44 681.398 2710.48 667.888C2701.65 654.245 2697.23 637.257 2697.23 616.926C2697.23 599.805 2700.38 585.425 2706.66 573.788C2712.95 562.151 2721.51 552.788 2732.35 545.699C2743.18 538.61 2755.49 533.259 2769.26 529.648C2783.17 526.036 2797.75 523.495 2813 522.023C2830.93 520.151 2845.37 518.412 2856.34 516.807C2867.31 515.068 2875.27 512.527 2880.22 509.183C2885.17 505.839 2887.64 500.889 2887.64 494.335V493.131C2887.64 480.424 2883.63 470.593 2875.6 463.637C2867.71 456.682 2856.47 453.204 2841.89 453.204C2826.51 453.204 2814.27 456.615 2805.18 463.437C2796.08 470.125 2790.06 478.552 2787.12 488.717L2708.07 482.297C2712.08 463.571 2719.97 447.386 2731.74 433.742C2743.51 419.965 2758.7 409.398 2777.29 402.041C2796.02 394.551 2817.68 390.805 2842.3 390.805C2859.42 390.805 2875.8 392.812 2891.45 396.825C2907.24 400.837 2921.21 407.057 2933.39 415.484C2945.69 423.911 2955.39 434.745 2962.48 447.988C2969.57 461.096 2973.11 476.813 2973.11 495.138V703H2892.05V660.264H2889.65C2884.7 669.895 2878.08 678.388 2869.78 685.745C2861.49 692.968 2851.53 698.653 2839.89 702.799C2828.25 706.812 2814.81 708.819 2799.56 708.819ZM2824.04 649.831C2836.61 649.831 2847.71 647.356 2857.34 642.407C2866.97 637.324 2874.53 630.502 2880.02 621.942C2885.5 613.381 2888.24 603.684 2888.24 592.849V560.145C2885.57 561.884 2881.89 563.489 2877.21 564.96C2872.66 566.298 2867.51 567.569 2861.76 568.772C2856.01 569.842 2850.25 570.846 2844.5 571.782C2838.75 572.585 2833.53 573.32 2828.85 573.989C2818.82 575.46 2810.06 577.801 2802.57 581.011C2795.08 584.222 2789.26 588.569 2785.11 594.053C2780.97 599.403 2778.89 606.091 2778.89 614.117C2778.89 625.754 2783.11 634.649 2791.53 640.802C2800.09 646.821 2810.93 649.831 2824.04 649.831ZM3039.42 703V394.818H3122.29V448.589H3125.5C3131.12 429.462 3140.55 415.016 3153.79 405.251C3167.03 395.353 3182.28 390.404 3199.53 390.404C3203.81 390.404 3208.43 390.672 3213.38 391.207C3218.33 391.742 3222.67 392.477 3226.42 393.414V469.255C3222.41 468.051 3216.86 466.981 3209.77 466.045C3202.68 465.109 3196.19 464.641 3190.3 464.641C3177.73 464.641 3166.5 467.383 3156.6 472.867C3146.83 478.217 3139.07 485.708 3133.32 495.338C3127.71 504.969 3124.9 516.071 3124.9 528.645V703H3039.42ZM3349.66 708.819C3330 708.819 3312.48 705.408 3297.09 698.586C3281.71 691.63 3269.54 681.398 3260.58 667.888C3251.75 654.245 3247.34 637.257 3247.34 616.926C3247.34 599.805 3250.48 585.425 3256.77 573.788C3263.05 562.151 3271.61 552.788 3282.45 545.699C3293.28 538.61 3305.59 533.259 3319.37 529.648C3333.28 526.036 3347.86 523.495 3363.11 522.023C3381.03 520.151 3395.48 518.412 3406.44 516.807C3417.41 515.068 3425.37 512.527 3430.32 509.183C3435.27 505.839 3437.74 500.889 3437.74 494.335V493.131C3437.74 480.424 3433.73 470.593 3425.7 463.637C3417.81 456.682 3406.58 453.204 3392 453.204C3376.61 453.204 3364.38 456.615 3355.28 463.437C3346.18 470.125 3340.17 478.552 3337.22 488.717L3258.17 482.297C3262.18 463.571 3270.08 447.386 3281.85 433.742C3293.62 419.965 3308.8 409.398 3327.39 402.041C3346.12 394.551 3367.79 390.805 3392.4 390.805C3409.52 390.805 3425.91 392.812 3441.56 396.825C3457.34 400.837 3471.32 407.057 3483.49 415.484C3495.79 423.911 3505.49 434.745 3512.58 447.988C3519.67 461.096 3523.22 476.813 3523.22 495.138V703H3442.16V660.264H3439.75C3434.8 669.895 3428.18 678.388 3419.89 685.745C3411.59 692.968 3401.63 698.653 3389.99 702.799C3378.35 706.812 3364.91 708.819 3349.66 708.819ZM3374.14 649.831C3386.71 649.831 3397.82 647.356 3407.45 642.407C3417.08 637.324 3424.63 630.502 3430.12 621.942C3435.6 613.381 3438.35 603.684 3438.35 592.849V560.145C3435.67 561.884 3431.99 563.489 3427.31 564.96C3422.76 566.298 3417.61 567.569 3411.86 568.772C3406.11 569.842 3400.36 570.846 3394.61 571.782C3388.85 572.585 3383.64 573.32 3378.96 573.989C3368.92 575.46 3360.16 577.801 3352.67 581.011C3345.18 584.222 3339.36 588.569 3335.22 594.053C3331.07 599.403 3329 606.091 3329 614.117C3329 625.754 3333.21 634.649 3341.64 640.802C3350.2 646.821 3361.03 649.831 3374.14 649.831ZM3865.81 394.818L3758.06 703H3661.76L3554.01 394.818H3644.3L3708.31 615.321H3711.52L3775.32 394.818H3865.81ZM4040.06 709.019C4008.36 709.019 3981.07 702.599 3958.2 689.758C3935.46 676.783 3917.94 658.458 3905.63 634.783C3893.33 610.973 3887.17 582.817 3887.17 550.314C3887.17 518.613 3893.33 490.791 3905.63 466.848C3917.94 442.905 3935.26 424.245 3957.6 410.869C3980.07 397.493 4006.42 390.805 4036.65 390.805C4056.98 390.805 4075.91 394.083 4093.43 400.637C4111.09 407.057 4126.47 416.755 4139.58 429.729C4152.82 442.704 4163.12 459.023 4170.48 478.685C4177.83 498.214 4181.51 521.087 4181.51 547.304V570.779H3921.28V517.81H4101.06C4101.06 505.504 4098.38 494.603 4093.03 485.106C4087.68 475.609 4080.26 468.185 4070.76 462.835C4061.4 457.351 4050.5 454.609 4038.06 454.609C4025.08 454.609 4013.58 457.618 4003.55 463.637C3993.65 469.523 3985.89 477.482 3980.27 487.513C3974.65 497.412 3971.78 508.447 3971.64 520.619V570.979C3971.64 586.228 3974.45 599.403 3980.07 610.505C3985.82 621.607 3993.91 630.168 4004.35 636.187C4014.78 642.206 4027.15 645.216 4041.47 645.216C4050.96 645.216 4059.66 643.878 4067.55 641.203C4075.44 638.528 4082.2 634.515 4087.81 629.165C4093.43 623.814 4097.71 617.26 4100.66 609.502L4179.71 614.719C4175.69 633.713 4167.47 650.299 4155.03 664.477C4142.72 678.522 4126.8 689.49 4107.28 697.382C4087.88 705.14 4065.48 709.019 4040.06 709.019ZM4322.76 292.091V703H4237.29V292.091H4322.76ZM4565.79 292.091H4625.18L4764.82 633.178H4769.64L4909.28 292.091H4968.67V703H4922.12V390.805H4918.11L4789.7 703H4744.76L4616.35 390.805H4612.34V703H4565.79V292.091ZM5152.71 710.223C5133.18 710.223 5115.45 706.545 5099.54 699.188C5083.62 691.697 5070.98 680.93 5061.62 666.885C5052.25 652.706 5047.57 635.585 5047.57 615.521C5047.57 597.865 5051.05 583.553 5058 572.585C5064.96 561.482 5074.26 552.788 5085.89 546.501C5097.53 540.215 5110.37 535.533 5124.42 532.457C5138.6 529.246 5152.84 526.705 5167.15 524.832C5185.88 522.425 5201.06 520.619 5212.7 519.415C5224.47 518.078 5233.03 515.87 5238.38 512.794C5243.86 509.718 5246.61 504.367 5246.61 496.743V495.138C5246.61 475.341 5241.19 459.959 5230.35 448.991C5219.65 438.022 5203.4 432.538 5181.6 432.538C5158.99 432.538 5141.27 437.487 5128.43 447.386C5115.59 457.284 5106.56 467.851 5101.34 479.087L5056.4 463.035C5064.43 444.309 5075.13 429.729 5088.5 419.296C5102.01 408.729 5116.73 401.372 5132.64 397.226C5148.69 392.946 5164.48 390.805 5179.99 390.805C5189.89 390.805 5201.26 392.009 5214.1 394.417C5227.08 396.691 5239.58 401.439 5251.62 408.662C5263.79 415.885 5273.89 426.787 5281.92 441.366C5289.94 455.946 5293.96 475.475 5293.96 499.953V703H5246.61V661.267H5244.2C5240.99 667.955 5235.64 675.111 5228.15 682.735C5220.66 690.36 5210.69 696.847 5198.25 702.197C5185.81 707.548 5170.63 710.223 5152.71 710.223ZM5159.93 667.688C5178.66 667.688 5194.44 664.009 5207.28 656.652C5220.26 649.296 5230.02 639.799 5236.57 628.162C5243.26 616.524 5246.61 604.286 5246.61 591.445V548.107C5244.6 550.514 5240.19 552.721 5233.36 554.728C5226.68 556.6 5218.92 558.272 5210.09 559.744C5201.4 561.081 5192.9 562.285 5184.61 563.355C5176.45 564.291 5169.83 565.094 5164.75 565.763C5152.44 567.368 5140.94 569.976 5130.24 573.588C5119.67 577.065 5111.11 582.349 5104.55 589.438C5098.13 596.394 5094.92 605.891 5094.92 617.929C5094.92 634.381 5101.01 646.821 5113.18 655.248C5125.49 663.541 5141.07 667.688 5159.93 667.688ZM5504.78 824.989C5481.91 824.989 5462.24 822.046 5445.79 816.161C5429.34 810.409 5415.63 802.785 5404.66 793.288C5393.82 783.924 5385.2 773.893 5378.78 763.192L5416.5 736.707C5420.78 742.325 5426.19 748.746 5432.75 755.969C5439.3 763.326 5448.26 769.679 5459.63 775.029C5471.14 780.514 5486.19 783.256 5504.78 783.256C5529.66 783.256 5550.19 777.237 5566.37 765.198C5582.56 753.16 5590.65 734.3 5590.65 708.618V646.018H5586.64C5583.16 651.636 5578.21 658.592 5571.79 666.885C5565.51 675.044 5556.41 682.334 5544.5 688.755C5532.73 695.041 5516.82 698.185 5496.75 698.185C5471.87 698.185 5449.54 692.299 5429.74 680.528C5410.08 668.758 5394.49 651.636 5382.99 629.165C5371.62 606.693 5365.94 579.406 5365.94 547.304C5365.94 515.737 5371.49 488.249 5382.59 464.841C5393.69 441.3 5409.14 423.108 5428.94 410.267C5448.73 397.293 5471.61 390.805 5497.56 390.805C5517.62 390.805 5533.54 394.149 5545.31 400.837C5557.21 407.392 5566.31 414.882 5572.59 423.309C5579.01 431.602 5583.96 438.424 5587.44 443.774H5592.26V394.818H5638V711.828C5638 738.312 5631.98 759.848 5619.95 776.434C5608.04 793.154 5591.99 805.393 5571.79 813.151C5551.73 821.043 5529.39 824.989 5504.78 824.989ZM5503.17 655.649C5522.17 655.649 5538.22 651.302 5551.33 642.608C5564.44 633.913 5574.4 621.407 5581.22 605.088C5588.04 588.769 5591.45 569.241 5591.45 546.501C5591.45 524.297 5588.11 504.702 5581.42 487.714C5574.73 470.727 5564.84 457.418 5551.73 447.787C5538.62 438.156 5522.43 433.341 5503.17 433.341C5483.11 433.341 5466.39 438.424 5453.01 448.589C5439.77 458.755 5429.81 472.399 5423.12 489.52C5416.56 506.641 5413.29 525.635 5413.29 546.501C5413.29 567.903 5416.63 586.83 5423.32 603.282C5430.14 619.601 5440.17 632.442 5453.41 641.805C5466.79 651.034 5483.38 655.649 5503.17 655.649ZM5853.89 709.42C5824.2 709.42 5798.58 702.866 5777.05 689.758C5755.64 676.516 5739.12 658.057 5727.49 634.381C5715.98 610.572 5710.23 582.884 5710.23 551.317C5710.23 519.75 5715.98 491.928 5727.49 467.851C5739.12 443.64 5755.31 424.78 5776.04 411.271C5796.91 397.627 5821.25 390.805 5849.08 390.805C5865.13 390.805 5880.98 393.481 5896.63 398.831C5912.28 404.181 5926.52 412.876 5939.36 424.914C5952.2 436.819 5962.44 452.602 5970.06 472.265C5977.68 491.928 5981.5 516.138 5981.5 544.896V564.96H5743.94V524.03H5933.34C5933.34 506.641 5929.87 491.125 5922.91 477.482C5916.09 463.838 5906.32 453.07 5893.62 445.179C5881.04 437.287 5866.2 433.341 5849.08 433.341C5830.22 433.341 5813.9 438.022 5800.12 447.386C5786.48 456.615 5775.98 468.653 5768.62 483.501C5761.26 498.348 5757.58 514.265 5757.58 531.253V558.54C5757.58 581.814 5761.6 601.543 5769.62 617.728C5777.78 633.779 5789.08 646.018 5803.53 654.445C5817.98 662.738 5834.76 666.885 5853.89 666.885C5866.33 666.885 5877.57 665.146 5887.6 661.668C5897.76 658.057 5906.52 652.706 5913.88 645.617C5921.24 638.394 5926.92 629.432 5930.94 618.732L5976.68 631.572C5971.87 647.089 5963.77 660.732 5952.4 672.503C5941.03 684.14 5926.99 693.236 5910.27 699.79C5893.55 706.21 5874.76 709.42 5853.89 709.42ZM6100.88 292.091V703H6053.53V292.091H6100.88ZM6234.95 292.091V703H6187.6V292.091H6234.95ZM6412.37 710.223C6392.84 710.223 6375.12 706.545 6359.2 699.188C6343.28 691.697 6330.64 680.93 6321.28 666.885C6311.92 652.706 6307.23 635.585 6307.23 615.521C6307.23 597.865 6310.71 583.553 6317.67 572.585C6324.62 561.482 6333.92 552.788 6345.56 546.501C6357.19 540.215 6370.03 535.533 6384.08 532.457C6398.26 529.246 6412.5 526.705 6426.82 524.832C6445.54 522.425 6460.72 520.619 6472.36 519.415C6484.13 518.078 6492.69 515.87 6498.04 512.794C6503.53 509.718 6506.27 504.367 6506.27 496.743V495.138C6506.27 475.341 6500.85 459.959 6490.02 448.991C6479.32 438.022 6463.06 432.538 6441.26 432.538C6418.66 432.538 6400.93 437.487 6388.09 447.386C6375.25 457.284 6366.22 467.851 6361.01 479.087L6316.06 463.035C6324.09 444.309 6334.79 429.729 6348.17 419.296C6361.67 408.729 6376.39 401.372 6392.31 397.226C6408.36 392.946 6424.14 390.805 6439.66 390.805C6449.55 390.805 6460.92 392.009 6473.77 394.417C6486.74 396.691 6499.25 401.439 6511.28 408.662C6523.46 415.885 6533.56 426.787 6541.58 441.366C6549.61 455.946 6553.62 475.475 6553.62 499.953V703H6506.27V661.267H6503.86C6500.65 667.955 6495.3 675.111 6487.81 682.735C6480.32 690.36 6470.35 696.847 6457.91 702.197C6445.48 707.548 6430.29 710.223 6412.37 710.223ZM6419.59 667.688C6438.32 667.688 6454.1 664.009 6466.94 656.652C6479.92 649.296 6489.68 639.799 6496.24 628.162C6502.92 616.524 6506.27 604.286 6506.27 591.445V548.107C6504.26 550.514 6499.85 552.721 6493.03 554.728C6486.34 556.6 6478.58 558.272 6469.75 559.744C6461.06 561.081 6452.56 562.285 6444.27 563.355C6436.11 564.291 6429.49 565.094 6424.41 565.763C6412.1 567.368 6400.6 569.976 6389.9 573.588C6379.33 577.065 6370.77 582.349 6364.22 589.438C6357.8 596.394 6354.59 605.891 6354.59 617.929C6354.59 634.381 6360.67 646.821 6372.84 655.248C6385.15 663.541 6400.73 667.688 6419.59 667.688ZM6687.4 517.609V703H6640.05V394.818H6685.79V442.972H6689.8C6697.03 427.322 6707.99 414.748 6722.71 405.251C6737.42 395.621 6756.42 390.805 6779.69 390.805C6800.56 390.805 6818.81 395.086 6834.46 403.646C6850.11 412.073 6862.29 424.914 6870.98 442.169C6879.68 459.29 6884.02 480.959 6884.02 507.176V703H6836.67V510.386C6836.67 486.176 6830.38 467.316 6817.81 453.806C6805.24 440.163 6787.98 433.341 6766.05 433.341C6750.93 433.341 6737.42 436.618 6725.52 443.172C6713.75 449.726 6704.45 459.29 6697.63 471.864C6690.81 484.437 6687.4 499.686 6687.4 517.609Z" fill="white"/>
</svg>
