<svg fill="none" height="895" viewBox="0 0 6974 895" width="6974" xmlns="http://www.w3.org/2000/svg"><path d="m331.943 875-294.943-469.574h399.5l221.534 60.443 345.016-432.869 348.87 437.712 255.08-65.286h373l-305.85 469.574h-671.1z" fill="#2f80ed"/><path d="m331.943 875-294.943-469.574h399.5l566.55 154.574 603.95-154.574h373l-305.85 469.574m-1342.207 0h671.107 671.1m-1342.207 0 671.107-842 671.1 842" stroke="#fff" stroke-width="40"/><path d="m2393.71 730v-410.909h86.88v339.281h176.16v71.628zm406.85 5.819c-19.66 0-37.19-3.411-52.57-10.233-15.38-6.956-27.55-17.188-36.51-30.698-8.83-13.643-13.25-30.631-13.25-50.962 0-17.121 3.15-31.501 9.43-43.138 6.29-11.637 14.85-21 25.69-28.089 10.83-7.089 23.14-12.44 36.91-16.051 13.91-3.612 28.49-6.153 43.74-7.625 17.93-1.872 32.37-3.611 43.34-5.216 10.97-1.739 18.93-4.28 23.88-7.624s7.42-8.294 7.42-14.848v-1.204c0-12.707-4.01-22.538-12.04-29.494-7.89-6.955-19.13-10.433-33.71-10.433-15.38 0-27.62 3.411-36.71 10.233-9.1 6.688-15.12 15.115-18.06 25.28l-79.05-6.42c4.01-18.726 11.9-34.911 23.67-48.555 11.77-13.777 26.96-24.344 45.55-31.701 18.73-7.49 40.39-11.236 65.01-11.236 17.12 0 33.5 2.007 49.15 6.02 15.79 4.012 29.76 10.232 41.94 18.659 12.3 8.427 22 19.261 29.09 32.504 7.09 13.108 10.63 28.825 10.63 47.15v207.862h-81.06v-42.736h-2.4c-4.95 9.631-11.57 18.124-19.87 25.481-8.29 7.223-18.25 12.908-29.89 17.054-11.64 4.013-25.08 6.02-40.33 6.02zm24.48-58.988c12.57 0 23.67-2.475 33.3-7.424 9.63-5.083 17.19-11.905 22.68-20.465 5.48-8.561 8.22-18.258 8.22-29.093v-32.704c-2.67 1.739-6.35 3.344-11.03 4.815-4.55 1.338-9.7 2.609-15.45 3.812-5.75 1.07-11.51 2.074-17.26 3.01-5.75.803-10.97 1.538-15.65 2.207-10.03 1.471-18.79 3.812-26.28 7.022-7.49 3.211-13.31 7.558-17.46 13.042-4.14 5.35-6.22 12.038-6.22 20.064 0 11.637 4.22 20.532 12.64 26.685 8.56 6.019 19.4 9.029 32.51 9.029zm215.38 53.169v-308.182h82.87v53.771h3.21c5.62-19.127 15.05-33.573 28.29-43.338 13.24-9.898 28.49-14.847 45.74-14.847 4.28 0 8.9.268 13.85.803s9.29 1.27 13.04 2.207v75.841c-4.01-1.204-9.56-2.274-16.65-3.21s-13.58-1.404-19.47-1.404c-12.57 0-23.8 2.742-33.7 8.226-9.77 5.35-17.53 12.841-23.28 22.471-5.61 9.631-8.42 20.733-8.42 33.307v174.355zm310.24 5.819c-19.66 0-37.18-3.411-52.57-10.233-15.38-6.956-27.55-17.188-36.51-30.698-8.83-13.643-13.24-30.631-13.24-50.962 0-17.121 3.14-31.501 9.43-43.138 6.28-11.637 14.84-21 25.68-28.089 10.83-7.089 23.14-12.44 36.92-16.051 13.91-3.612 28.49-6.153 43.74-7.625 17.92-1.872 32.37-3.611 43.33-5.216 10.97-1.739 18.93-4.28 23.88-7.624s7.42-8.294 7.42-14.848v-1.204c0-12.707-4.01-22.538-12.04-29.494-7.89-6.955-19.12-10.433-33.7-10.433-15.39 0-27.62 3.411-36.72 10.233-9.1 6.688-15.11 15.115-18.06 25.28l-79.05-6.42c4.01-18.726 11.91-34.911 23.68-48.555 11.77-13.777 26.95-24.344 45.54-31.701 18.73-7.49 40.4-11.236 65.01-11.236 17.12 0 33.51 2.007 49.16 6.02 15.78 4.012 29.76 10.232 41.93 18.659 12.3 8.427 22 19.261 29.09 32.504 7.09 13.108 10.64 28.825 10.64 47.15v207.862h-81.06v-42.736h-2.41c-4.95 9.631-11.57 18.124-19.86 25.481-8.3 7.223-18.26 12.908-29.9 17.054-11.64 4.013-25.08 6.02-40.33 6.02zm24.48-58.988c12.57 0 23.68-2.475 33.31-7.424 9.63-5.083 17.18-11.905 22.67-20.465 5.48-8.561 8.23-18.258 8.23-29.093v-32.704c-2.68 1.739-6.36 3.344-11.04 4.815-4.55 1.338-9.7 2.609-15.45 3.812-5.75 1.07-11.5 2.074-17.25 3.01-5.76.803-10.97 1.538-15.65 2.207-10.04 1.471-18.8 3.812-26.29 7.022-7.49 3.211-13.31 7.558-17.45 13.042-4.15 5.35-6.22 12.038-6.22 20.064 0 11.637 4.21 20.532 12.64 26.685 8.56 6.019 19.39 9.029 32.5 9.029zm491.67-255.013-107.75 308.182h-96.3l-107.75-308.182h90.29l64.01 220.503h3.21l63.8-220.503zm174.25 314.201c-31.7 0-58.99-6.42-81.86-19.261-22.74-12.975-40.26-31.3-52.57-54.975-12.3-23.81-18.46-51.966-18.46-84.469 0-31.701 6.16-59.523 18.46-83.466 12.31-23.943 29.63-42.603 51.97-55.979 22.47-13.376 48.82-20.064 79.05-20.064 20.33 0 39.26 3.278 56.78 9.832 17.66 6.42 33.04 16.118 46.15 29.092 13.24 12.975 23.54 29.294 30.9 48.956 7.35 19.529 11.03 42.402 11.03 68.619v23.475h-260.23v-52.969h179.78c0-12.306-2.68-23.207-8.03-32.704s-12.77-16.921-22.27-22.271c-9.36-5.484-20.26-8.226-32.7-8.226-12.98 0-24.48 3.009-34.51 9.028-9.9 5.886-17.66 13.845-23.28 23.876-5.62 9.899-8.49 20.934-8.63 33.106v50.36c0 15.249 2.81 28.424 8.43 39.526 5.75 11.102 13.84 19.663 24.28 25.682 10.43 6.019 22.8 9.029 37.12 9.029 9.49 0 18.19-1.338 26.08-4.013s14.65-6.688 20.26-12.038c5.62-5.351 9.9-11.905 12.85-19.663l79.05 5.217c-4.02 18.994-12.24 35.58-24.68 49.758-12.31 14.045-28.23 25.013-47.75 32.905-19.4 7.758-41.8 11.637-67.22 11.637zm282.7-416.928v410.909h-85.47v-410.909zm243.03 0h59.39l139.64 341.087h4.82l139.64-341.087h59.39v410.909h-46.55v-312.195h-4.01l-128.41 312.195h-44.94l-128.41-312.195h-4.01v312.195h-46.55zm586.92 418.132c-19.53 0-37.26-3.678-53.17-11.035-15.92-7.491-28.56-18.258-37.92-32.303-9.37-14.179-14.05-31.3-14.05-51.364 0-17.656 3.48-31.968 10.43-42.936 6.96-11.103 16.26-19.797 27.89-26.084 11.64-6.286 24.48-10.968 38.53-14.044 14.18-3.211 28.42-5.752 42.73-7.625 18.73-2.407 33.91-4.213 45.55-5.417 11.77-1.337 20.33-3.545 25.68-6.621 5.48-3.076 8.23-8.427 8.23-16.051v-1.605c0-19.797-5.42-35.179-16.26-46.147-10.7-10.969-26.95-16.453-48.75-16.453-22.61 0-40.33 4.949-53.17 14.848-12.84 9.898-21.87 20.465-27.09 31.701l-44.94-16.052c8.03-18.726 18.73-33.306 32.1-43.739 13.51-10.567 28.23-17.924 44.14-22.07 16.05-4.28 31.84-6.421 47.35-6.421 9.9 0 21.27 1.204 34.11 3.612 12.98 2.274 25.48 7.022 37.52 14.245 12.17 7.223 22.27 18.125 30.3 32.704 8.02 14.58 12.04 34.109 12.04 58.587v203.047h-47.35v-41.733h-2.41c-3.21 6.688-8.56 13.844-16.05 21.468-7.49 7.625-17.46 14.112-29.9 19.462-12.44 5.351-27.62 8.026-45.54 8.026zm7.22-42.535c18.73 0 34.51-3.679 47.35-11.036 12.98-7.356 22.74-16.853 29.29-28.49 6.69-11.638 10.04-23.876 10.04-36.717v-43.338c-2.01 2.407-6.42 4.614-13.25 6.621-6.68 1.872-14.44 3.544-23.27 5.016-8.69 1.337-17.19 2.541-25.48 3.611-8.16.936-14.78 1.739-19.86 2.408-12.31 1.605-23.81 4.213-34.51 7.825-10.57 3.477-19.13 8.761-25.69 15.85-6.42 6.956-9.63 16.453-9.63 28.491 0 16.452 6.09 28.892 18.26 37.319 12.31 8.293 27.89 12.44 46.75 12.44zm344.85 157.301c-22.87 0-42.54-2.943-58.99-8.828-16.45-5.752-30.16-13.376-41.13-22.873-10.84-9.364-19.46-19.395-25.88-30.096l37.72-26.485c4.28 5.618 9.69 12.039 16.25 19.262 6.55 7.357 15.51 13.71 26.88 19.06 11.51 5.485 26.56 8.227 45.15 8.227 24.88 0 45.41-6.019 61.59-18.058 16.19-12.038 24.28-30.898 24.28-56.58v-62.6h-4.01c-3.48 5.618-8.43 12.574-14.85 20.867-6.28 8.159-15.38 15.449-27.29 21.87-11.77 6.286-27.68 9.43-47.75 9.43-24.88 0-47.21-5.886-67.01-17.657-19.66-11.77-35.25-28.892-46.75-51.363-11.37-22.472-17.05-49.759-17.05-81.861 0-31.567 5.55-59.055 16.65-82.463 11.1-23.541 26.55-41.733 46.35-54.574 19.79-12.974 42.67-19.462 68.62-19.462 20.06 0 35.98 3.344 47.75 10.032 11.9 6.555 21 14.045 27.28 22.472 6.42 8.293 11.37 15.115 14.85 20.465h4.82v-48.956h45.74v317.01c0 26.484-6.02 48.02-18.05 64.606-11.91 16.72-27.96 28.959-48.16 36.717-20.06 7.892-42.4 11.838-67.01 11.838zm-1.61-169.34c19 0 35.05-4.347 48.16-13.041 13.11-8.695 23.07-21.201 29.89-37.52s10.23-35.847 10.23-58.587c0-22.204-3.34-41.799-10.03-58.787-6.69-16.987-16.58-30.296-29.69-39.927s-29.3-14.446-48.56-14.446c-20.06 0-36.78 5.083-50.16 15.248-13.24 10.166-23.2 23.81-29.89 40.931-6.56 17.121-9.83 36.115-9.83 56.981 0 21.402 3.34 40.329 10.03 56.781 6.82 16.319 16.85 29.16 30.09 38.523 13.38 9.229 29.97 13.844 49.76 13.844zm350.72 53.771c-29.69 0-55.31-6.554-76.84-19.662-21.41-13.242-37.93-31.701-49.56-55.377-11.51-23.809-17.26-51.497-17.26-83.064s5.75-59.389 17.26-83.466c11.63-24.211 27.82-43.071 48.55-56.58 20.87-13.644 45.21-20.466 73.04-20.466 16.05 0 31.9 2.676 47.55 8.026s29.89 14.045 42.73 26.083c12.84 11.905 23.08 27.688 30.7 47.351s11.44 43.873 11.44 72.631v20.064h-237.56v-40.93h189.4c0-17.389-3.47-32.905-10.43-46.548-6.82-13.644-16.59-24.412-29.29-32.303-12.58-7.892-27.42-11.838-44.54-11.838-18.86 0-35.18 4.681-48.96 14.045-13.64 9.229-24.14 21.267-31.5 36.115-7.36 14.847-11.04 30.764-11.04 47.752v27.287c0 23.274 4.02 43.003 12.04 59.188 8.16 16.051 19.46 28.29 33.91 36.717 14.45 8.293 31.23 12.44 50.36 12.44 12.44 0 23.68-1.739 33.71-5.217 10.16-3.611 18.92-8.962 26.28-16.051 7.36-7.223 13.04-16.185 17.06-26.885l45.74 12.84c-4.81 15.517-12.91 29.16-24.28 40.931-11.37 11.637-25.41 20.733-42.13 27.287-16.72 6.42-35.51 9.63-56.38 9.63zm246.99-417.329v410.909h-47.35v-410.909zm134.07 0v410.909h-47.35v-410.909zm177.42 418.132c-19.53 0-37.25-3.678-53.17-11.035-15.92-7.491-28.56-18.258-37.92-32.303-9.36-14.179-14.05-31.3-14.05-51.364 0-17.656 3.48-31.968 10.44-42.936 6.95-11.103 16.25-19.797 27.89-26.084 11.63-6.286 24.47-10.968 38.52-14.044 14.18-3.211 28.42-5.752 42.74-7.625 18.72-2.407 33.9-4.213 45.54-5.417 11.77-1.337 20.33-3.545 25.68-6.621 5.49-3.076 8.23-8.427 8.23-16.051v-1.605c0-19.797-5.42-35.179-16.25-46.147-10.7-10.969-26.96-16.453-48.76-16.453-22.6 0-40.33 4.949-53.17 14.848-12.84 9.898-21.87 20.465-27.08 31.701l-44.95-16.052c8.03-18.726 18.73-33.306 32.11-43.739 13.5-10.567 28.22-17.924 44.14-22.07 16.05-4.28 31.83-6.421 47.35-6.421 9.89 0 21.26 1.204 34.11 3.612 12.97 2.274 25.48 7.022 37.51 14.245 12.18 7.223 22.28 18.125 30.3 32.704 8.03 14.58 12.04 34.109 12.04 58.587v203.047h-47.35v-41.733h-2.41c-3.21 6.688-8.56 13.844-16.05 21.468-7.49 7.625-17.46 14.112-29.9 19.462-12.43 5.351-27.62 8.026-45.54 8.026zm7.22-42.535c18.73 0 34.51-3.679 47.35-11.036 12.98-7.356 22.74-16.853 29.3-28.49 6.68-11.638 10.03-23.876 10.03-36.717v-43.338c-2.01 2.407-6.42 4.614-13.24 6.621-6.69 1.872-14.45 3.544-23.28 5.016-8.69 1.337-17.19 2.541-25.48 3.611-8.16.936-14.78 1.739-19.86 2.408-12.31 1.605-23.81 4.213-34.51 7.825-10.57 3.477-19.13 8.761-25.68 15.85-6.42 6.956-9.63 16.453-9.63 28.491 0 16.452 6.08 28.892 18.25 37.319 12.31 8.293 27.89 12.44 46.75 12.44zm267.81-150.079v185.391h-47.35v-308.182h45.74v48.154h4.01c7.23-15.65 18.19-28.224 32.91-37.721 14.71-9.63 33.71-14.446 56.98-14.446 20.87 0 39.12 4.281 54.77 12.841 15.65 8.427 27.83 21.268 36.52 38.523 8.7 17.121 13.04 38.79 13.04 65.007v195.824h-47.35v-192.614c0-24.21-6.29-43.07-18.86-56.58-12.57-13.643-29.83-20.465-51.76-20.465-15.12 0-28.63 3.277-40.53 9.831-11.77 6.554-21.07 16.118-27.89 28.692-6.82 12.573-10.23 27.822-10.23 45.745z" fill="#000"/></svg>